<?xml version="1.0" standalone="no"?>
<!DOCTYPE svg PUBLIC "-//W3C//DTD SVG 20010904//EN"
 "http://www.w3.org/TR/2001/REC-SVG-20010904/DTD/svg10.dtd">
<svg version="1.0" xmlns="http://www.w3.org/2000/svg"
 width="1237.000000pt" height="799.000000pt" viewBox="0 0 1237.000000 799.000000"
 preserveAspectRatio="xMidYMid meet">

<g transform="translate(0.000000,799.000000) scale(0.100000,-0.100000)"
fill="#ffffff" stroke="none">
<path d="M5371 7980 c-65 -14 -183 -72 -251 -125 -219 -169 -408 -456 -524
-797 -121 -355 -96 -558 80 -644 111 -54 291 -29 346 49 21 29 21 30 2 23 -96
-40 -171 -17 -207 62 -27 59 -28 208 -3 327 105 492 499 1050 675 955 30 -15
51 -83 51 -163 0 -255 -176 -850 -455 -1539 -36 -88 -65 -170 -65 -182 0 -52
83 -132 161 -155 49 -15 111 -14 131 2 9 6 33 59 53 117 91 257 233 587 371
860 83 165 223 415 224 399 0 -3 -29 -127 -64 -275 -113 -472 -132 -613 -90
-671 11 -15 38 -37 60 -48 49 -24 152 -32 175 -13 9 7 28 48 43 90 44 123 396
812 436 852 5 4 -9 -47 -31 -115 -78 -242 -176 -674 -205 -904 -14 -106 -15
-143 -5 -203 29 -191 151 -316 306 -315 62 0 153 31 176 59 9 12 4 14 -30 14
-196 0 -224 306 -80 875 84 330 269 840 415 1144 41 85 74 160 74 167 0 23
-62 85 -109 108 -80 41 -104 42 -145 5 -76 -66 -331 -469 -567 -896 -178 -321
-190 -343 -184 -313 61 299 161 612 257 807 37 76 49 109 44 128 -16 64 -141
155 -212 155 -23 0 -39 -8 -57 -30 -62 -73 -324 -513 -469 -786 -33 -63 -61
-114 -63 -114 -2 0 5 26 16 58 65 183 129 509 129 650 0 78 -18 178 -39 227
-25 56 -76 112 -125 137 -46 24 -173 33 -245 18z"/>
<path d="M7208 7448 c-31 -24 -108 -233 -108 -294 0 -42 27 -68 85 -83 77 -19
92 -8 179 146 43 76 76 145 74 157 -2 11 -22 34 -46 50 -34 24 -55 31 -105 34
-41 2 -68 -1 -79 -10z"/>
<path d="M7024 6951 c-97 -147 -259 -664 -240 -766 15 -76 106 -137 207 -139
74 -1 132 34 222 139 128 147 376 550 362 587 -9 22 -49 41 -72 34 -11 -4 -54
-65 -102 -145 -143 -240 -294 -423 -335 -408 -47 18 8 216 129 466 41 84 75
164 75 176 0 12 -8 29 -18 38 -32 29 -106 57 -154 57 -44 0 -50 -3 -74 -39z"/>
<path d="M1750 5953 c-338 -60 -790 -318 -1184 -677 -241 -220 -466 -524 -530
-717 -37 -110 -39 -225 -6 -312 42 -112 170 -220 300 -253 120 -30 231 -6 270
59 28 46 26 60 -8 52 -40 -8 -110 9 -138 36 -133 124 152 598 580 966 155 134
141 124 123 83 -8 -19 -58 -132 -110 -250 -199 -451 -420 -1011 -535 -1351
-63 -188 -65 -199 -53 -238 13 -45 63 -101 113 -127 17 -9 58 -19 90 -21 l58
-6 53 54 c28 30 92 102 140 161 125 151 472 489 597 582 131 97 284 175 360
183 110 11 167 -44 178 -172 l4 -61 -93 -54 c-542 -311 -1201 -893 -1480
-1306 -106 -157 -168 -333 -155 -436 16 -118 59 -184 154 -230 63 -31 73 -33
172 -32 126 0 220 24 354 89 113 53 325 194 471 311 149 120 409 381 532 536
263 328 452 684 500 939 l18 92 70 33 c68 31 269 103 329 118 l30 7 -42 -45
c-161 -175 -302 -546 -302 -796 0 -161 32 -242 133 -336 121 -114 322 -197
477 -198 78 -1 90 2 148 33 73 40 186 153 254 257 25 39 74 126 108 195 34 68
63 125 64 126 1 1 30 -6 66 -16 36 -10 96 -22 133 -26 67 -7 69 -7 63 -31 -16
-64 -36 -227 -36 -297 0 -88 17 -132 72 -183 99 -94 320 -149 453 -113 68 18
252 220 412 451 l60 87 6 -72 c3 -40 10 -89 17 -109 24 -80 118 -171 236 -228
70 -34 133 -39 191 -15 55 23 167 120 219 189 l47 61 -7 -40 c-19 -115 -18
-230 3 -330 22 -107 77 -232 130 -296 73 -88 225 -158 341 -159 83 0 127 12
186 53 58 39 67 57 26 57 -68 0 -145 44 -187 108 -118 179 -51 669 176 1289
179 490 392 900 643 1240 61 82 61 83 106 83 25 0 55 -3 66 -6 21 -6 21 -6 -7
-78 -41 -107 -79 -244 -82 -295 -1 -39 2 -47 32 -72 63 -52 184 -76 246 -47
19 8 57 66 137 207 61 108 112 197 113 199 7 8 175 -66 224 -99 77 -51 113
-104 119 -175 2 -29 8 -54 13 -54 18 0 68 83 78 131 34 156 -17 325 -133 439
-97 96 -243 150 -488 180 l-98 12 63 70 c86 97 91 104 91 157 -1 93 -77 185
-204 245 -82 39 -142 46 -188 22 -43 -23 -167 -179 -300 -377 l-71 -107 -98
-6 c-636 -44 -1249 -171 -1653 -343 -232 -99 -262 -128 -234 -222 17 -59 98
-183 150 -232 92 -86 127 -90 206 -25 237 193 541 321 963 405 157 32 400 65
434 59 18 -3 12 -17 -50 -133 -100 -185 -316 -612 -441 -870 -114 -235 -293
-548 -396 -695 -98 -138 -205 -240 -251 -240 -19 0 -10 162 18 296 38 183 171
567 290 836 34 75 61 148 61 162 0 55 -103 138 -209 170 -135 40 -158 25 -255
-168 -86 -172 -306 -570 -433 -786 -172 -291 -370 -570 -403 -570 -23 0 51
303 127 523 60 177 107 285 213 498 39 76 70 149 70 161 0 55 -119 129 -237
150 -89 15 -138 5 -176 -35 -62 -66 -252 -512 -327 -766 l-21 -73 -66 7 c-69
7 -159 31 -166 43 -2 4 9 70 24 147 71 350 58 570 -43 728 -39 61 -143 148
-223 188 -158 77 -365 91 -482 33 -48 -24 -63 -38 -86 -81 -15 -29 -31 -75
-34 -102 -6 -49 -7 -51 -42 -57 -72 -12 -179 -44 -341 -103 l-165 -59 -20 26
c-10 15 -58 65 -105 112 -67 68 -103 95 -170 128 -47 23 -107 48 -133 54 l-48
13 75 64 c319 270 545 596 546 786 1 157 -118 363 -281 487 -187 142 -362 183
-599 141z m436 -319 c72 -34 97 -105 69 -200 -63 -219 -300 -517 -845 -1059
-190 -189 -248 -241 -237 -215 75 183 315 729 378 859 43 90 79 177 79 193 0
63 -55 123 -146 157 l-47 18 87 52 c105 64 225 119 331 154 175 58 271 69 331
41z m1328 -1411 c29 -110 40 -263 27 -364 -6 -50 -18 -105 -25 -122 l-14 -32
-12 30 c-46 118 -63 202 -64 325 -1 117 1 129 27 184 16 36 31 56 36 50 5 -5
17 -37 25 -71z m-285 -577 c23 -36 78 -99 122 -140 l81 -75 -16 -43 c-34 -85
-139 -274 -179 -323 -77 -93 -209 -196 -223 -173 -16 25 -16 167 0 275 26 177
138 543 166 543 4 0 26 -29 49 -64z m-1354 -214 c-41 -80 -170 -254 -293 -397
-122 -142 -435 -451 -582 -574 -111 -93 -263 -201 -282 -201 -11 0 20 79 62
157 147 273 577 701 1019 1016 52 37 98 67 103 67 5 0 -7 -31 -27 -68z"/>
<path d="M11547 4734 c-98 -35 -276 -200 -404 -374 -125 -170 -228 -353 -325
-580 -108 -252 -318 -581 -463 -725 l-90 -90 -3 70 c-8 184 130 711 289 1104
67 166 66 175 -10 244 -55 50 -121 78 -196 84 -87 7 -100 -6 -195 -203 -197
-410 -561 -1039 -706 -1221 -46 -57 -81 -89 -89 -81 -10 10 34 176 99 373 77
230 199 547 266 689 22 46 40 91 40 100 0 29 -59 83 -122 112 -47 21 -79 28
-125 29 -55 0 -65 -3 -93 -30 -77 -74 -264 -531 -360 -882 -92 -336 -113 -548
-62 -620 28 -39 97 -86 171 -115 45 -17 77 -22 161 -22 96 -1 109 1 150 25 73
43 197 191 367 437 l50 72 5 -72 c7 -103 37 -166 109 -232 79 -71 187 -126
248 -126 94 0 242 122 368 303 l62 89 11 -44 c18 -65 43 -108 91 -156 127
-127 346 -225 464 -208 96 15 312 167 514 361 193 187 353 392 464 595 52 96
127 279 127 311 0 11 -15 36 -34 55 -28 28 -42 34 -75 34 -40 0 -41 -1 -75
-67 -91 -181 -305 -463 -506 -664 -249 -251 -458 -368 -521 -290 -38 47 -19
248 41 432 17 52 34 97 38 101 4 4 31 -1 59 -12 111 -42 230 -34 337 23 162
86 345 358 440 654 46 145 54 209 32 268 -21 54 -46 75 -186 160 -168 101
-266 125 -363 89z m169 -487 c-38 -145 -117 -304 -196 -390 -34 -37 -74 -74
-89 -82 -40 -20 -97 -29 -106 -16 -13 22 147 293 264 446 64 85 145 169 149
156 2 -6 -8 -57 -22 -114z"/>
<path d="M8832 4564 c-7 -3 -58 -60 -113 -126 -65 -76 -106 -117 -115 -114 -8
3 -47 27 -86 54 -144 97 -220 122 -310 102 -153 -32 -339 -242 -568 -640 -164
-286 -331 -522 -449 -633 -76 -71 -111 -84 -131 -48 -43 82 41 350 241 760 60
123 109 232 109 242 0 32 -67 95 -132 124 -43 19 -85 30 -133 33 -92 5 -108
-7 -178 -146 -187 -364 -376 -1016 -338 -1159 25 -90 146 -180 275 -204 77
-14 141 -4 204 32 53 30 164 133 220 204 l32 40 0 -58 c0 -64 14 -99 57 -138
106 -100 299 -158 381 -115 58 30 205 201 397 461 118 160 175 229 175 215 0
-7 -61 -166 -135 -354 -469 -1191 -595 -1526 -595 -1584 0 -119 184 -204 343
-158 85 25 108 51 193 217 129 251 300 491 448 624 78 70 79 77 22 119 -21 16
-42 21 -89 20 -64 -1 -104 -15 -166 -62 l-33 -25 7 24 c38 123 558 1486 675
1769 137 332 134 322 126 354 -10 40 -83 109 -149 139 -54 26 -157 43 -185 31z
m-456 -400 c21 -82 -29 -230 -112 -334 -33 -41 -134 -171 -224 -288 -90 -118
-183 -235 -207 -260 l-43 -47 31 90 c65 190 241 523 366 690 60 80 153 175
172 175 6 0 14 -12 17 -26z"/>
<path d="M9723 1187 c-27 -28 -62 -71 -78 -95 -15 -23 -29 -42 -30 -42 -1 0
-28 11 -58 26 -78 35 -125 35 -177 -1 -82 -57 -150 -182 -150 -276 0 -114
-338 -471 -433 -457 -21 3 -22 8 -20 83 1 97 22 161 49 157 11 -1 36 -5 57 -9
93 -15 189 67 263 222 46 99 67 177 54 209 -18 47 -141 119 -205 119 -93 0
-219 -133 -325 -343 -68 -135 -91 -212 -97 -320 -6 -119 8 -147 95 -207 80
-54 137 -64 196 -35 104 50 271 211 358 346 21 33 40 61 42 64 2 2 25 -27 52
-63 l47 -67 -34 -27 c-151 -117 -246 -226 -267 -304 -17 -61 3 -105 62 -138
34 -20 55 -24 122 -23 98 0 159 26 247 104 127 114 156 239 82 349 -14 19 -25
38 -25 42 0 9 187 141 270 191 80 47 120 65 160 70 25 4 24 4 -10 26 -75 47
-150 21 -366 -127 l-118 -81 -20 32 c-30 48 -29 183 3 253 25 57 67 105 92
105 15 0 15 -4 -3 -54 -27 -72 -19 -114 28 -155 41 -36 75 -42 67 -11 -6 24
45 137 89 193 17 23 61 72 97 110 l66 67 -20 36 c-23 42 -69 84 -94 84 -10 0
-40 -24 -68 -53z m-693 -288 c-29 -107 -111 -219 -161 -219 -19 0 -19 1 2 43
42 83 155 234 166 223 2 -2 -1 -23 -7 -47z m369 -600 c-36 -71 -155 -177 -175
-156 -13 12 44 95 114 169 71 75 77 79 80 55 2 -14 -7 -45 -19 -68z"/>
<path d="M3291 1114 c-129 -35 -249 -132 -306 -248 -164 -334 73 -698 455
-699 106 -1 176 15 263 61 387 201 317 776 -108 887 -74 19 -232 19 -304 -1z
m280 -191 c58 -26 109 -77 140 -139 20 -40 24 -64 23 -134 0 -129 -45 -210
-146 -266 -48 -26 -62 -29 -143 -29 -81 0 -95 3 -144 30 -96 53 -144 139 -145
260 0 64 4 91 23 133 29 65 106 137 170 157 60 19 163 14 222 -12z"/>
<path d="M4120 650 l0 -470 110 0 110 0 2 279 3 279 229 -279 229 -279 88 0
89 0 0 470 0 470 -105 0 -105 0 0 -280 c0 -154 -3 -280 -7 -279 -5 0 -111 126
-236 280 l-228 279 -89 0 -90 0 0 -470z"/>
<path d="M5200 650 l0 -470 345 0 345 0 0 90 0 90 -235 0 -235 0 0 380 0 380
-110 0 -110 0 0 -470z"/>
<path d="M6010 650 l0 -470 110 0 110 0 0 470 0 470 -110 0 -110 0 0 -470z"/>
<path d="M6450 650 l0 -470 110 0 110 0 2 279 3 279 229 -279 229 -279 88 0
89 0 0 470 0 470 -105 0 -105 0 0 -280 c0 -154 -3 -280 -7 -279 -5 0 -111 126
-236 280 l-228 279 -89 0 -90 0 0 -470z"/>
<path d="M7530 650 l0 -470 365 0 365 0 0 85 0 85 -255 0 -255 0 0 110 0 110
215 0 215 0 0 85 0 85 -215 0 -215 0 0 100 0 100 245 0 245 0 0 90 0 90 -355
0 -355 0 0 -470z"/>
<path d="M8334 366 c-28 -28 -34 -42 -34 -76 0 -34 6 -48 34 -76 28 -28 42
-34 76 -34 34 0 48 6 76 34 28 28 34 42 34 76 0 34 -6 48 -34 76 -28 28 -42
34 -76 34 -34 0 -48 -6 -76 -34z"/>
</g>
</svg>
