<?xml version="1.0" standalone="no"?>
<!DOCTYPE svg PUBLIC "-//W3C//DTD SVG 20010904//EN"
 "http://www.w3.org/TR/2001/REC-SVG-20010904/DTD/svg10.dtd">
<svg version="1.0" xmlns="http://www.w3.org/2000/svg"
 width="1237.000000pt" height="804.000000pt" viewBox="0 0 1237.000000 804.000000"
 preserveAspectRatio="xMidYMid meet">

<g transform="translate(0.000000,804.000000) scale(0.100000,-0.100000)"
fill="#000000" stroke="none">
<path d="M5333 8025 c-218 -59 -480 -329 -638 -660 -157 -328 -218 -625 -157
-759 34 -74 64 -108 123 -141 50 -28 62 -30 154 -30 88 0 107 3 150 26 47 24
87 70 73 84 -3 4 -21 -1 -39 -10 -61 -32 -143 -5 -176 58 -25 48 -29 191 -8
302 56 302 252 693 437 871 82 80 140 114 193 114 127 0 121 -238 -20 -725
-76 -261 -245 -736 -360 -1010 -55 -133 -58 -175 -15 -227 53 -64 189 -113
250 -90 22 8 35 36 92 188 91 244 201 502 313 729 85 173 235 448 241 442 1
-1 -20 -92 -47 -202 -103 -419 -138 -647 -107 -705 31 -57 152 -102 226 -84
34 8 39 14 59 70 39 110 129 299 257 537 122 229 174 320 162 284 -70 -213
-176 -664 -210 -898 -38 -253 -3 -408 112 -509 96 -85 250 -93 354 -19 l33 24
-53 6 c-68 9 -96 28 -127 89 -67 132 -51 379 50 775 97 379 298 927 451 1226
36 71 43 91 35 111 -21 56 -137 128 -206 128 -27 0 -41 -9 -75 -47 -97 -111
-350 -519 -580 -936 -69 -125 -126 -223 -128 -218 -6 17 70 298 124 461 30 91
82 221 115 289 41 85 57 131 53 145 -24 80 -170 179 -239 162 -28 -7 -72 -65
-166 -216 -73 -117 -293 -500 -334 -580 -15 -29 -28 -50 -31 -47 -3 2 9 50 25
107 59 196 76 308 76 500 0 172 0 176 -29 238 -34 73 -95 133 -154 150 -53 16
-195 14 -259 -3z"/>
<path d="M7217 7514 c-31 -10 -106 -191 -122 -295 -6 -38 -3 -47 17 -66 44
-41 136 -58 170 -30 8 6 50 74 93 150 89 158 89 166 11 212 -44 26 -129 40
-169 29z"/>
<path d="M7053 7040 c-53 -22 -204 -400 -254 -635 -36 -171 -22 -229 68 -282
41 -24 59 -28 124 -28 68 0 80 3 119 30 62 43 158 158 265 320 96 144 205 339
205 368 0 26 -29 47 -65 47 -31 0 -36 -5 -81 -82 -153 -263 -310 -468 -359
-468 -57 0 -5 184 137 481 68 143 71 152 57 177 -28 51 -161 96 -216 72z"/>
<path d="M1833 6018 c-446 -38 -1108 -454 -1530 -960 -272 -327 -361 -595
-264 -793 76 -153 276 -261 438 -235 75 12 112 35 133 83 l19 42 -71 6 c-64 5
-74 9 -99 37 -90 100 21 353 292 667 114 132 381 387 393 374 2 -2 -16 -49
-41 -104 -295 -661 -653 -1591 -653 -1697 0 -47 11 -71 54 -116 39 -42 73 -60
137 -72 66 -13 104 3 157 66 164 197 240 280 393 431 254 251 385 354 547 431
93 44 194 56 238 27 37 -24 64 -90 64 -157 l0 -56 -73 -40 c-41 -23 -141 -85
-223 -140 -492 -326 -954 -744 -1212 -1095 -161 -218 -219 -359 -209 -512 5
-90 25 -140 76 -191 55 -56 114 -77 226 -82 190 -8 362 55 615 226 374 251
691 567 939 937 197 294 307 537 346 768 6 36 11 40 72 68 70 31 195 77 281
102 l51 16 -44 -54 c-123 -152 -229 -399 -270 -635 -19 -106 -19 -186 -1 -272
18 -84 36 -119 95 -181 123 -132 341 -227 521 -227 103 0 160 28 266 134 95
96 165 199 241 356 30 63 56 116 58 118 1 1 40 -7 86 -18 46 -11 103 -20 127
-20 48 0 47 4 28 -105 -49 -282 -24 -374 124 -458 123 -70 331 -95 416 -50 69
37 253 246 382 436 l59 87 5 -83 c3 -67 10 -92 33 -136 36 -65 107 -129 195
-176 78 -41 131 -51 186 -36 68 18 175 101 250 194 l31 38 -4 -138 c-5 -118
-2 -151 16 -228 43 -180 129 -304 257 -372 79 -42 183 -67 253 -60 61 7 165
53 199 90 l23 24 -50 6 c-100 12 -171 70 -212 174 -21 52 -23 74 -23 208 1
267 81 610 243 1044 180 480 382 868 619 1188 l75 101 56 -5 c31 -3 57 -6 58
-7 1 -1 -14 -44 -34 -96 -44 -120 -78 -267 -69 -303 20 -82 238 -138 303 -78
10 10 66 101 123 202 57 101 105 186 107 188 1 2 40 -10 85 -28 165 -64 252
-151 252 -252 0 -27 2 -49 6 -49 16 0 53 36 70 70 26 50 42 159 34 223 -16
122 -65 218 -151 298 -103 94 -237 144 -460 171 -57 7 -103 15 -103 19 0 3 27
35 60 71 65 72 80 100 80 155 0 91 -95 197 -223 251 -127 53 -169 42 -263 -71
-71 -84 -173 -224 -233 -320 -24 -37 -51 -72 -61 -77 -10 -6 -43 -10 -73 -10
-81 0 -350 -27 -547 -55 -484 -70 -919 -187 -1207 -326 -145 -70 -163 -85
-163 -138 0 -86 122 -271 219 -333 64 -40 87 -37 162 24 251 202 591 340 1029
418 116 20 362 51 367 46 2 -2 -47 -97 -108 -212 -136 -256 -323 -628 -385
-766 -85 -189 -318 -594 -425 -738 -69 -94 -148 -175 -199 -204 l-33 -19 6
119 c4 84 14 154 36 239 50 203 174 545 291 811 60 136 60 153 -6 214 -105 97
-270 133 -337 73 -10 -10 -55 -89 -99 -177 -80 -160 -254 -476 -401 -730 -114
-196 -327 -513 -377 -561 l-43 -40 7 45 c37 250 182 653 366 1020 27 55 50
107 50 117 0 27 -84 99 -142 121 -137 51 -233 49 -286 -6 -59 -63 -267 -552
-328 -771 l-17 -64 -71 6 c-39 3 -89 12 -111 20 -48 17 -48 12 -9 202 25 122
28 163 29 315 0 202 -15 271 -83 375 -113 175 -380 289 -599 256 -147 -22
-199 -67 -230 -198 l-16 -69 -83 -17 c-46 -10 -165 -47 -266 -83 l-183 -65
-20 28 c-98 137 -254 250 -393 286 l-52 13 76 64 c110 94 278 271 357 375 37
50 91 137 120 195 l52 105 0 110 c0 96 -3 118 -26 173 -63 148 -167 272 -304
361 -146 96 -274 126 -462 109z m364 -348 c144 -88 36 -339 -323 -752 -141
-162 -697 -720 -685 -688 44 119 338 785 406 920 25 49 45 101 45 115 0 58
-45 110 -128 148 l-53 25 29 21 c57 40 157 93 261 137 203 87 379 116 448 74z
m1329 -1482 c19 -111 15 -320 -9 -383 l-14 -40 -31 96 c-58 180 -62 326 -11
436 l21 48 14 -32 c8 -18 21 -74 30 -125z m-240 -577 c27 -30 70 -71 96 -91
l47 -38 -43 -94 c-92 -204 -186 -330 -307 -412 -48 -32 -54 -34 -63 -19 -13
23 -11 181 3 268 25 148 94 387 142 489 l22 47 27 -48 c15 -27 50 -73 76 -102z
m-1416 -128 c-155 -276 -679 -833 -1015 -1079 -71 -52 -135 -89 -135 -79 0 18
73 161 110 216 161 239 496 575 820 824 98 75 240 175 248 175 2 0 -11 -26
-28 -57z"/>
<path d="M11569 4797 c-70 -20 -130 -60 -225 -149 -106 -101 -184 -196 -280
-340 -73 -110 -211 -373 -254 -483 -53 -134 -214 -407 -341 -578 -74 -99 -177
-207 -198 -207 -15 0 -14 57 4 172 40 265 157 671 277 963 28 66 52 130 55
143 13 57 -67 146 -165 182 -74 28 -165 30 -194 4 -12 -10 -53 -84 -91 -164
-188 -390 -538 -1003 -683 -1195 -80 -106 -102 -131 -110 -123 -29 29 241 810
367 1060 21 43 39 85 39 94 0 10 -20 36 -44 60 -85 81 -242 112 -305 59 -59
-50 -192 -347 -300 -672 -88 -263 -161 -594 -161 -730 0 -103 81 -188 224
-234 93 -30 226 -31 288 -1 67 33 205 191 346 396 l82 120 0 -65 c0 -36 7 -88
17 -115 24 -71 117 -160 224 -214 74 -37 90 -41 133 -36 26 3 69 17 95 32 64
37 194 173 264 274 34 51 57 76 57 64 0 -10 13 -46 28 -79 75 -158 338 -312
517 -303 62 3 79 8 144 46 250 149 555 444 740 717 88 129 170 283 215 404 32
87 34 96 21 127 -7 18 -24 40 -38 49 -29 19 -87 29 -103 18 -5 -4 -27 -39 -48
-78 -110 -202 -299 -448 -501 -651 -248 -250 -447 -364 -511 -293 -37 41 -17
244 42 429 35 108 30 105 105 80 52 -18 81 -21 151 -18 75 4 96 9 161 41 133
66 267 228 372 450 84 178 119 294 119 402 1 117 -10 132 -162 227 -183 113
-276 142 -373 115z m141 -498 c-43 -165 -109 -295 -203 -396 -63 -67 -105 -93
-152 -93 -30 0 -31 9 -5 60 97 190 365 560 378 521 2 -6 -6 -47 -18 -92z"/>
<path d="M8823 4614 c-7 -3 -55 -57 -108 -120 -53 -63 -99 -114 -104 -114 -5
0 -43 22 -85 50 -128 84 -173 103 -254 108 -66 4 -78 2 -136 -27 -127 -62
-315 -291 -481 -586 -141 -250 -325 -515 -439 -633 -81 -84 -120 -109 -141
-92 -66 55 20 338 243 790 55 113 95 207 95 224 0 23 -11 40 -47 72 -61 56
-141 86 -232 88 -88 1 -98 -6 -159 -119 -161 -297 -356 -920 -355 -1133 1
-107 54 -177 179 -235 73 -35 187 -47 256 -28 55 15 162 98 234 182 l61 70 0
-41 c0 -56 24 -103 74 -147 87 -75 257 -134 343 -118 67 12 183 141 461 513
68 89 124 162 127 162 5 0 -16 -55 -158 -415 -385 -977 -552 -1416 -563 -1484
-12 -72 48 -146 145 -179 49 -17 179 -15 233 3 64 22 87 52 165 205 124 245
301 493 451 629 l75 69 -16 26 c-29 43 -72 59 -146 54 -63 -5 -97 -17 -148
-54 l-23 -16 19 53 c24 70 189 509 380 1013 145 381 270 695 367 922 41 98 44
109 33 141 -15 46 -75 106 -141 139 -39 20 -71 28 -123 30 -38 2 -75 1 -82 -2z
m-449 -409 c8 -33 -21 -170 -47 -222 -35 -68 -504 -669 -514 -659 -7 7 46 140
107 272 54 115 147 280 228 404 59 89 186 230 207 230 7 0 16 -11 19 -25z"/>
<path d="M9933 1197 c-27 -28 -62 -71 -78 -95 -15 -23 -30 -42 -33 -42 -3 0
-26 10 -51 22 -25 12 -68 24 -95 26 -46 4 -55 0 -93 -30 -82 -65 -138 -163
-149 -263 -5 -47 -16 -73 -48 -122 -133 -199 -344 -382 -393 -341 -18 15 -13
92 12 175 l15 52 54 -6 c82 -8 119 2 173 51 60 54 108 133 145 238 32 90 35
134 12 166 -25 37 -153 102 -200 102 -187 0 -486 -542 -424 -770 22 -80 137
-162 232 -163 41 -1 57 6 120 49 96 65 224 195 290 294 l53 80 22 -28 c44 -52
66 -94 55 -101 -6 -3 -49 -39 -96 -79 -179 -155 -236 -276 -166 -355 37 -43
97 -61 187 -55 127 7 262 100 322 220 42 83 42 145 0 224 l-30 58 23 18 c51
40 227 157 283 189 32 18 76 36 97 39 21 3 39 10 40 15 1 6 -17 20 -38 33 -74
43 -143 19 -352 -125 -68 -46 -125 -83 -127 -81 -37 43 -46 164 -19 245 18 53
55 107 84 123 19 10 19 9 5 -31 -32 -90 -12 -159 55 -194 42 -22 50 -19 50 18
1 66 81 195 184 297 31 30 56 63 56 73 0 45 -72 127 -112 127 -8 0 -37 -24
-65 -53z m-707 -320 c-18 -59 -56 -125 -93 -158 -29 -27 -63 -44 -63 -31 0 25
156 249 166 239 2 -2 -2 -25 -10 -50z m400 -524 c-12 -47 -73 -130 -127 -173
-28 -22 -55 -40 -60 -40 -21 0 37 86 108 161 42 43 78 79 80 79 3 0 2 -12 -1
-27z"/>
<path d="M3313 1175 c-131 -28 -259 -121 -326 -235 -73 -126 -76 -335 -6 -472
28 -55 120 -151 176 -184 115 -67 295 -93 423 -60 182 46 310 161 360 325 27
84 27 217 1 300 -77 246 -347 387 -628 326z m234 -198 c66 -25 119 -73 152
-137 27 -54 31 -74 31 -140 0 -66 -4 -86 -31 -138 -52 -106 -134 -155 -255
-155 -118 0 -200 50 -257 157 -32 59 -32 213 0 271 54 101 145 155 258 154 39
0 84 -6 102 -12z"/>
<path d="M4120 700 l0 -470 110 0 110 0 2 274 3 274 225 -274 224 -274 98 0
98 0 0 470 0 470 -115 0 -115 0 -2 -273 -3 -273 -224 273 -224 273 -93 0 -94
0 0 -470z"/>
<path d="M5200 700 l0 -470 345 0 345 0 0 90 0 90 -235 0 -235 0 0 380 0 380
-110 0 -110 0 0 -470z"/>
<path d="M6010 700 l0 -470 110 0 110 0 0 470 0 470 -110 0 -110 0 0 -470z"/>
<path d="M6450 700 l0 -470 110 0 110 0 2 274 3 274 225 -274 224 -274 98 0
98 0 0 470 0 470 -115 0 -115 0 -2 -273 -3 -273 -224 273 -224 273 -93 0 -94
0 0 -470z"/>
<path d="M7530 700 l0 -470 365 0 365 0 0 90 0 90 -255 0 -255 0 0 105 0 105
220 0 220 0 0 90 0 90 -220 0 -220 0 0 95 0 95 250 0 250 0 0 90 0 90 -360 0
-360 0 0 -470z"/>
<path d="M8488 434 c-77 -41 -75 -169 2 -209 84 -43 180 13 180 105 0 92 -99
149 -182 104z"/>
</g>
</svg>
